<mxfile host="Electron" agent="Mozilla/5.0 (X11; Linux x86_64) AppleWebKit/537.36 (KHTML, like Gecko) draw.io/24.7.8 Chrome/128.0.6613.36 Electron/32.0.1 Safari/537.36" version="24.7.8">
  <diagram id="TrZ-H8Da3qq9aLU9SPik" name="Flow of the app">
    <mxGraphModel dx="995" dy="1427" grid="1" gridSize="10" guides="1" tooltips="1" connect="1" arrows="1" fold="1" page="1" pageScale="1" pageWidth="1169" pageHeight="827" math="0" shadow="0">
      <root>
        <mxCell id="0" />
        <mxCell id="1" parent="0" />
        <mxCell id="liIZSH5RQYmUz2vL5TKs-3" value="" style="rounded=0;whiteSpace=wrap;html=1;fillColor=#dae8fc;strokeColor=#6c8ebf;fillStyle=dashed;" parent="1" vertex="1">
          <mxGeometry x="320" y="160" width="200" height="160" as="geometry" />
        </mxCell>
        <mxCell id="liIZSH5RQYmUz2vL5TKs-4" value="" style="rounded=0;whiteSpace=wrap;html=1;fillColor=#f8cecc;strokeColor=#b85450;fillStyle=dashed;" parent="1" vertex="1">
          <mxGeometry x="670" y="230" width="160" height="120" as="geometry" />
        </mxCell>
        <mxCell id="liIZSH5RQYmUz2vL5TKs-5" value="" style="rounded=0;whiteSpace=wrap;html=1;fillColor=#fff2cc;strokeColor=#d6b656;fillStyle=dashed;gradientColor=none;" parent="1" vertex="1">
          <mxGeometry x="950" y="120" width="300" height="360" as="geometry" />
        </mxCell>
        <mxCell id="z9FG9AvtT7yrs5gUOfZ3-7" value="&lt;font face=&quot;Courier New&quot; style=&quot;font-size: 20px;&quot;&gt;&lt;i&gt;Domain&lt;/i&gt;&lt;/font&gt;" style="text;html=1;align=center;verticalAlign=middle;whiteSpace=wrap;rounded=0;" parent="1" vertex="1">
          <mxGeometry x="950" y="450" width="280" height="30" as="geometry" />
        </mxCell>
        <mxCell id="z9FG9AvtT7yrs5gUOfZ3-8" value="&lt;font face=&quot;Courier New&quot; style=&quot;font-size: 20px;&quot;&gt;&lt;i&gt;Application&lt;/i&gt;&lt;/font&gt;" style="text;html=1;align=center;verticalAlign=middle;whiteSpace=wrap;rounded=0;" parent="1" vertex="1">
          <mxGeometry x="650" y="310" width="200" height="42.31" as="geometry" />
        </mxCell>
        <mxCell id="z9FG9AvtT7yrs5gUOfZ3-9" value="" style="rounded=0;whiteSpace=wrap;html=1;fillColor=#d5e8d4;strokeColor=#82b366;fillStyle=dashed;" parent="1" vertex="1">
          <mxGeometry x="320" y="320" width="200" height="160" as="geometry" />
        </mxCell>
        <mxCell id="z9FG9AvtT7yrs5gUOfZ3-10" value="&lt;font face=&quot;Courier New&quot; style=&quot;font-size: 20px;&quot;&gt;&lt;i&gt;Infrastructure&lt;/i&gt;&lt;/font&gt;" style="text;html=1;align=center;verticalAlign=middle;whiteSpace=wrap;rounded=0;" parent="1" vertex="1">
          <mxGeometry x="320" y="440" width="200" height="40" as="geometry" />
        </mxCell>
        <mxCell id="z9FG9AvtT7yrs5gUOfZ3-11" value="&lt;font face=&quot;Courier New&quot;&gt;&lt;span style=&quot;font-size: 20px;&quot;&gt;&lt;i&gt;Presentation&lt;/i&gt;&lt;/span&gt;&lt;/font&gt;" style="text;html=1;align=center;verticalAlign=middle;whiteSpace=wrap;rounded=0;" parent="1" vertex="1">
          <mxGeometry x="320" y="280" width="200" height="40" as="geometry" />
        </mxCell>
        <mxCell id="z9FG9AvtT7yrs5gUOfZ3-39" value="" style="group" parent="1" vertex="1" connectable="0">
          <mxGeometry x="360" y="342.31" width="160" height="115.38615384615383" as="geometry" />
        </mxCell>
        <mxCell id="z9FG9AvtT7yrs5gUOfZ3-40" value="" style="rounded=0;whiteSpace=wrap;html=1;" parent="z9FG9AvtT7yrs5gUOfZ3-39" vertex="1">
          <mxGeometry width="120" height="40" as="geometry" />
        </mxCell>
        <mxCell id="z9FG9AvtT7yrs5gUOfZ3-41" value="&lt;font style=&quot;font-size: 16px;&quot; face=&quot;Courier New&quot;&gt;Service&lt;/font&gt;" style="text;html=1;align=center;verticalAlign=middle;whiteSpace=wrap;rounded=0;" parent="z9FG9AvtT7yrs5gUOfZ3-39" vertex="1">
          <mxGeometry width="120" height="40" as="geometry" />
        </mxCell>
        <mxCell id="z9FG9AvtT7yrs5gUOfZ3-42" value="" style="group;fontStyle=4" parent="1" vertex="1" connectable="0">
          <mxGeometry x="360" y="400" width="120" height="40" as="geometry" />
        </mxCell>
        <mxCell id="z9FG9AvtT7yrs5gUOfZ3-43" value="" style="rounded=0;whiteSpace=wrap;html=1;" parent="z9FG9AvtT7yrs5gUOfZ3-42" vertex="1">
          <mxGeometry width="120" height="40" as="geometry" />
        </mxCell>
        <mxCell id="z9FG9AvtT7yrs5gUOfZ3-44" value="&lt;font style=&quot;font-size: 16px;&quot; face=&quot;Courier New&quot;&gt;Persistence&lt;/font&gt;" style="text;html=1;align=center;verticalAlign=middle;whiteSpace=wrap;rounded=0;" parent="z9FG9AvtT7yrs5gUOfZ3-42" vertex="1">
          <mxGeometry width="120" height="40" as="geometry" />
        </mxCell>
        <mxCell id="f7sNq5c6VwE4PImA_pKB-13" value="" style="rounded=0;whiteSpace=wrap;html=1;fillColor=#f5f5f5;fontColor=#333333;strokeColor=#666666;dashed=1;" parent="1" vertex="1">
          <mxGeometry x="130" y="20" width="80" height="40" as="geometry" />
        </mxCell>
        <mxCell id="f7sNq5c6VwE4PImA_pKB-14" value="" style="endArrow=classic;html=1;rounded=0;strokeWidth=2;fillColor=#dae8fc;strokeColor=#6c8ebf;" parent="1" edge="1">
          <mxGeometry width="50" height="50" relative="1" as="geometry">
            <mxPoint x="290" y="39.74000000000001" as="sourcePoint" />
            <mxPoint x="370" y="39.74000000000001" as="targetPoint" />
          </mxGeometry>
        </mxCell>
        <mxCell id="f7sNq5c6VwE4PImA_pKB-15" value="" style="endArrow=classic;html=1;rounded=0;strokeWidth=2;fillColor=#f8cecc;strokeColor=#b85450;" parent="1" edge="1">
          <mxGeometry width="50" height="50" relative="1" as="geometry">
            <mxPoint x="450" y="39.47000000000003" as="sourcePoint" />
            <mxPoint x="530" y="39.47000000000003" as="targetPoint" />
          </mxGeometry>
        </mxCell>
        <mxCell id="f7sNq5c6VwE4PImA_pKB-16" value="Folder contains only interfaces" style="text;html=1;align=center;verticalAlign=middle;whiteSpace=wrap;rounded=0;fontFamily=Courier New;fontSize=16;" parent="1" vertex="1">
          <mxGeometry x="90" y="70" width="150" height="50" as="geometry" />
        </mxCell>
        <mxCell id="f7sNq5c6VwE4PImA_pKB-17" value="Implements" style="text;html=1;align=center;verticalAlign=middle;whiteSpace=wrap;rounded=0;fontFamily=Courier New;fontSize=16;" parent="1" vertex="1">
          <mxGeometry x="260" y="50" width="140" height="50" as="geometry" />
        </mxCell>
        <mxCell id="f7sNq5c6VwE4PImA_pKB-18" value="Use" style="text;html=1;align=center;verticalAlign=middle;whiteSpace=wrap;rounded=0;fontFamily=Courier New;fontSize=16;" parent="1" vertex="1">
          <mxGeometry x="420" y="50" width="140" height="50" as="geometry" />
        </mxCell>
        <mxCell id="f7sNq5c6VwE4PImA_pKB-19" value="" style="rounded=1;whiteSpace=wrap;html=1;fillColor=none;dashed=1;strokeWidth=2;strokeColor=default;" parent="1" vertex="1">
          <mxGeometry x="80" width="480" height="130" as="geometry" />
        </mxCell>
        <mxCell id="ybqGgP9Tk_2zhiFZXPDy-35" style="edgeStyle=orthogonalEdgeStyle;rounded=0;orthogonalLoop=1;jettySize=auto;html=1;entryX=1;entryY=0.25;entryDx=0;entryDy=0;strokeWidth=2;strokeColor=#B85450;endArrow=none;endFill=0;startArrow=classic;startFill=1;" parent="1" source="es6ofyouln5sS3Tgfs08-13" target="2FOs6otmB9vWOXLk1C3Q-9" edge="1">
          <mxGeometry relative="1" as="geometry">
            <Array as="points">
              <mxPoint x="1240" y="418" />
              <mxPoint x="1240" y="185" />
            </Array>
          </mxGeometry>
        </mxCell>
        <mxCell id="es6ofyouln5sS3Tgfs08-13" value="&lt;font style=&quot;font-size: 16px;&quot; face=&quot;Courier New&quot;&gt;Persistence&lt;/font&gt;" style="text;html=1;align=center;verticalAlign=middle;whiteSpace=wrap;rounded=0;fillColor=#f5f5f5;fontColor=#333333;strokeColor=#666666;dashed=1;" parent="1" vertex="1">
          <mxGeometry x="970" y="395.39" width="120" height="44.61" as="geometry" />
        </mxCell>
        <mxCell id="ybqGgP9Tk_2zhiFZXPDy-36" style="edgeStyle=orthogonalEdgeStyle;rounded=0;orthogonalLoop=1;jettySize=auto;html=1;exitX=1;exitY=0.5;exitDx=0;exitDy=0;entryX=1;entryY=0.75;entryDx=0;entryDy=0;strokeWidth=2;strokeColor=#B85450;endArrow=none;endFill=0;startArrow=classic;startFill=1;" parent="1" source="es6ofyouln5sS3Tgfs08-10" target="2FOs6otmB9vWOXLk1C3Q-9" edge="1">
          <mxGeometry relative="1" as="geometry">
            <Array as="points">
              <mxPoint x="1220" y="361" />
              <mxPoint x="1220" y="275" />
            </Array>
          </mxGeometry>
        </mxCell>
        <mxCell id="es6ofyouln5sS3Tgfs08-10" value="&lt;font style=&quot;font-size: 16px;&quot; face=&quot;Courier New&quot;&gt;Service&lt;/font&gt;" style="text;html=1;align=center;verticalAlign=middle;whiteSpace=wrap;rounded=0;fillColor=#f5f5f5;fontColor=#333333;strokeColor=#666666;dashed=1;" parent="1" vertex="1">
          <mxGeometry x="970" y="340" width="120" height="42.7" as="geometry" />
        </mxCell>
        <mxCell id="f7sNq5c6VwE4PImA_pKB-21" style="edgeStyle=orthogonalEdgeStyle;rounded=0;orthogonalLoop=1;jettySize=auto;html=1;fillColor=#dae8fc;strokeColor=#6c8ebf;strokeWidth=2;exitX=1;exitY=0.5;exitDx=0;exitDy=0;" parent="1" source="z9FG9AvtT7yrs5gUOfZ3-44" edge="1">
          <mxGeometry relative="1" as="geometry">
            <Array as="points">
              <mxPoint x="970" y="420" />
              <mxPoint x="970" y="420" />
            </Array>
            <mxPoint x="970" y="420" as="targetPoint" />
          </mxGeometry>
        </mxCell>
        <mxCell id="f7sNq5c6VwE4PImA_pKB-30" value="" style="whiteSpace=wrap;html=1;shape=mxgraph.basic.cloud_rect;fillColor=none;strokeWidth=1;container=0;" parent="1" vertex="1">
          <mxGeometry x="20" y="330" width="160" height="150" as="geometry" />
        </mxCell>
        <mxCell id="f7sNq5c6VwE4PImA_pKB-64" value="" style="group" parent="1" vertex="1" connectable="0">
          <mxGeometry x="40" y="400" width="120" height="40" as="geometry" />
        </mxCell>
        <mxCell id="z9FG9AvtT7yrs5gUOfZ3-28" value="" style="rounded=1;whiteSpace=wrap;html=1;container=0;" parent="f7sNq5c6VwE4PImA_pKB-64" vertex="1">
          <mxGeometry width="120" height="40.00000000000001" as="geometry" />
        </mxCell>
        <mxCell id="z9FG9AvtT7yrs5gUOfZ3-29" value="&lt;font style=&quot;font-size: 18px;&quot; face=&quot;Courier New&quot;&gt;DB&lt;/font&gt;" style="text;html=1;align=center;verticalAlign=middle;whiteSpace=wrap;rounded=0;container=0;" parent="f7sNq5c6VwE4PImA_pKB-64" vertex="1">
          <mxGeometry width="120" height="40.00000000000001" as="geometry" />
        </mxCell>
        <mxCell id="f7sNq5c6VwE4PImA_pKB-106" style="edgeStyle=orthogonalEdgeStyle;rounded=0;orthogonalLoop=1;jettySize=auto;html=1;exitX=1;exitY=0.5;exitDx=0;exitDy=0;entryX=0;entryY=0.5;entryDx=0;entryDy=0;startArrow=classic;startFill=1;strokeWidth=2;" parent="1" source="z9FG9AvtT7yrs5gUOfZ3-26" target="f7sNq5c6VwE4PImA_pKB-97" edge="1">
          <mxGeometry relative="1" as="geometry" />
        </mxCell>
        <mxCell id="z9FG9AvtT7yrs5gUOfZ3-26" value="&lt;font style=&quot;font-size: 18px;&quot; face=&quot;Courier New&quot;&gt;APIs&lt;/font&gt;" style="rounded=1;whiteSpace=wrap;html=1;container=0;" parent="1" vertex="1">
          <mxGeometry x="40" y="342.31" width="120" height="40" as="geometry" />
        </mxCell>
        <mxCell id="f7sNq5c6VwE4PImA_pKB-24" value="" style="group;fontStyle=4" parent="1" vertex="1" connectable="0">
          <mxGeometry x="360" y="180" width="120" height="100" as="geometry" />
        </mxCell>
        <mxCell id="f7sNq5c6VwE4PImA_pKB-25" value="" style="rounded=0;whiteSpace=wrap;html=1;" parent="f7sNq5c6VwE4PImA_pKB-24" vertex="1">
          <mxGeometry width="120" height="100" as="geometry" />
        </mxCell>
        <mxCell id="f7sNq5c6VwE4PImA_pKB-26" value="&lt;font style=&quot;font-size: 18px;&quot; face=&quot;Courier New&quot;&gt;Handler&lt;/font&gt;" style="text;html=1;align=center;verticalAlign=middle;whiteSpace=wrap;rounded=0;" parent="f7sNq5c6VwE4PImA_pKB-24" vertex="1">
          <mxGeometry width="120" height="100" as="geometry" />
        </mxCell>
        <mxCell id="z9FG9AvtT7yrs5gUOfZ3-13" value="" style="group;fontStyle=4" parent="1" vertex="1" connectable="0">
          <mxGeometry x="690" y="240" width="120" height="69.17" as="geometry" />
        </mxCell>
        <mxCell id="z9FG9AvtT7yrs5gUOfZ3-14" value="" style="rounded=0;whiteSpace=wrap;html=1;" parent="z9FG9AvtT7yrs5gUOfZ3-13" vertex="1">
          <mxGeometry width="120" height="69.17" as="geometry" />
        </mxCell>
        <mxCell id="z9FG9AvtT7yrs5gUOfZ3-15" value="&lt;font style=&quot;font-size: 18px;&quot; face=&quot;Courier New&quot;&gt;Usecase&lt;/font&gt;" style="text;html=1;align=center;verticalAlign=middle;whiteSpace=wrap;rounded=0;" parent="z9FG9AvtT7yrs5gUOfZ3-13" vertex="1">
          <mxGeometry width="120" height="69.17" as="geometry" />
        </mxCell>
        <mxCell id="f7sNq5c6VwE4PImA_pKB-85" style="edgeStyle=orthogonalEdgeStyle;rounded=0;orthogonalLoop=1;jettySize=auto;html=1;entryX=0;entryY=0.5;entryDx=0;entryDy=0;startArrow=classic;startFill=1;strokeWidth=2;" parent="1" target="f7sNq5c6VwE4PImA_pKB-26" edge="1">
          <mxGeometry relative="1" as="geometry">
            <mxPoint x="170" y="230" as="sourcePoint" />
            <Array as="points" />
          </mxGeometry>
        </mxCell>
        <mxCell id="f7sNq5c6VwE4PImA_pKB-87" style="edgeStyle=orthogonalEdgeStyle;rounded=0;orthogonalLoop=1;jettySize=auto;html=1;entryX=0;entryY=0.5;entryDx=0;entryDy=0;startArrow=classic;startFill=1;strokeWidth=2;" parent="1" source="z9FG9AvtT7yrs5gUOfZ3-29" target="f7sNq5c6VwE4PImA_pKB-102" edge="1">
          <mxGeometry relative="1" as="geometry" />
        </mxCell>
        <mxCell id="f7sNq5c6VwE4PImA_pKB-90" value="" style="sketch=0;outlineConnect=0;fontColor=#232F3E;gradientColor=none;fillColor=#232F3D;strokeColor=none;dashed=0;verticalLabelPosition=bottom;verticalAlign=top;align=center;html=1;fontSize=12;fontStyle=0;aspect=fixed;pointerEvents=1;shape=mxgraph.aws4.user;" parent="1" vertex="1">
          <mxGeometry x="60" y="170" width="100" height="100" as="geometry" />
        </mxCell>
        <mxCell id="f7sNq5c6VwE4PImA_pKB-91" value="&lt;font face=&quot;Courier New&quot; style=&quot;font-size: 20px;&quot;&gt;&lt;i&gt;Outer world&lt;/i&gt;&lt;/font&gt;" style="text;html=1;align=center;verticalAlign=middle;whiteSpace=wrap;rounded=0;" parent="1" vertex="1">
          <mxGeometry y="440" width="200" height="40" as="geometry" />
        </mxCell>
        <mxCell id="f7sNq5c6VwE4PImA_pKB-92" value="&lt;font face=&quot;Courier New&quot; style=&quot;font-size: 20px;&quot;&gt;&lt;i&gt;End user&lt;/i&gt;&lt;/font&gt;" style="text;html=1;align=center;verticalAlign=middle;whiteSpace=wrap;rounded=0;" parent="1" vertex="1">
          <mxGeometry x="60" y="270" width="100" height="40" as="geometry" />
        </mxCell>
        <mxCell id="f7sNq5c6VwE4PImA_pKB-103" value="" style="group" parent="1" vertex="1" connectable="0">
          <mxGeometry x="210" y="342.31" width="90" height="41.15" as="geometry" />
        </mxCell>
        <mxCell id="f7sNq5c6VwE4PImA_pKB-96" value="" style="rounded=1;whiteSpace=wrap;html=1;strokeWidth=2;fillWeight=4;hachureGap=8;hachureAngle=45;fillColor=#d5e8d4;sketch=1;strokeColor=#82b366;" parent="f7sNq5c6VwE4PImA_pKB-103" vertex="1">
          <mxGeometry width="90" height="41.14999999999999" as="geometry" />
        </mxCell>
        <mxCell id="f7sNq5c6VwE4PImA_pKB-97" value="APIs models" style="text;html=1;align=center;verticalAlign=middle;whiteSpace=wrap;rounded=0;fontFamily=Courier New;fontSize=16;" parent="f7sNq5c6VwE4PImA_pKB-103" vertex="1">
          <mxGeometry width="90" height="41.14999999999999" as="geometry" />
        </mxCell>
        <mxCell id="f7sNq5c6VwE4PImA_pKB-104" value="" style="group" parent="1" vertex="1" connectable="0">
          <mxGeometry x="210" y="400" width="90" height="40" as="geometry" />
        </mxCell>
        <mxCell id="f7sNq5c6VwE4PImA_pKB-101" value="" style="rounded=1;whiteSpace=wrap;html=1;strokeWidth=2;fillWeight=4;hachureGap=8;hachureAngle=45;fillColor=#d5e8d4;sketch=1;strokeColor=#82b366;" parent="f7sNq5c6VwE4PImA_pKB-104" vertex="1">
          <mxGeometry width="90" height="40" as="geometry" />
        </mxCell>
        <mxCell id="f7sNq5c6VwE4PImA_pKB-102" value="DB models" style="text;html=1;align=center;verticalAlign=middle;whiteSpace=wrap;rounded=0;fontFamily=Courier New;fontSize=16;" parent="f7sNq5c6VwE4PImA_pKB-104" vertex="1">
          <mxGeometry width="90" height="40" as="geometry" />
        </mxCell>
        <mxCell id="f7sNq5c6VwE4PImA_pKB-105" style="edgeStyle=orthogonalEdgeStyle;rounded=0;orthogonalLoop=1;jettySize=auto;html=1;exitX=1;exitY=0.5;exitDx=0;exitDy=0;entryX=0;entryY=0.5;entryDx=0;entryDy=0;startArrow=classic;startFill=1;strokeWidth=2;" parent="1" source="f7sNq5c6VwE4PImA_pKB-102" target="z9FG9AvtT7yrs5gUOfZ3-44" edge="1">
          <mxGeometry relative="1" as="geometry" />
        </mxCell>
        <mxCell id="f7sNq5c6VwE4PImA_pKB-107" style="edgeStyle=orthogonalEdgeStyle;rounded=0;orthogonalLoop=1;jettySize=auto;html=1;entryX=0;entryY=0.5;entryDx=0;entryDy=0;startArrow=classic;startFill=1;strokeWidth=2;" parent="1" source="f7sNq5c6VwE4PImA_pKB-97" target="z9FG9AvtT7yrs5gUOfZ3-41" edge="1">
          <mxGeometry relative="1" as="geometry" />
        </mxCell>
        <mxCell id="2FOs6otmB9vWOXLk1C3Q-7" value="" style="group;fontStyle=4" parent="1" vertex="1" connectable="0">
          <mxGeometry x="970" y="140" width="120" height="180" as="geometry" />
        </mxCell>
        <mxCell id="2FOs6otmB9vWOXLk1C3Q-8" value="" style="rounded=0;whiteSpace=wrap;html=1;" parent="2FOs6otmB9vWOXLk1C3Q-7" vertex="1">
          <mxGeometry width="120" height="180" as="geometry" />
        </mxCell>
        <mxCell id="2FOs6otmB9vWOXLk1C3Q-9" value="&lt;font style=&quot;font-size: 18px;&quot; face=&quot;Courier New&quot;&gt;Entity&lt;/font&gt;" style="text;html=1;align=center;verticalAlign=middle;whiteSpace=wrap;rounded=0;" parent="2FOs6otmB9vWOXLk1C3Q-7" vertex="1">
          <mxGeometry width="120" height="180" as="geometry" />
        </mxCell>
        <mxCell id="2FOs6otmB9vWOXLk1C3Q-20" style="edgeStyle=orthogonalEdgeStyle;rounded=0;orthogonalLoop=1;jettySize=auto;html=1;fillColor=#dae8fc;strokeColor=#6c8ebf;strokeWidth=2;exitX=1;exitY=0.5;exitDx=0;exitDy=0;entryX=0.015;entryY=0.525;entryDx=0;entryDy=0;entryPerimeter=0;" parent="1" target="es6ofyouln5sS3Tgfs08-10" edge="1">
          <mxGeometry relative="1" as="geometry">
            <Array as="points" />
            <mxPoint x="480" y="362.41" as="sourcePoint" />
            <mxPoint x="970" y="362" as="targetPoint" />
          </mxGeometry>
        </mxCell>
        <mxCell id="ybqGgP9Tk_2zhiFZXPDy-5" value="" style="group;rotation=0;" parent="1" vertex="1" connectable="0">
          <mxGeometry x="1120" y="397.69" width="90" height="40" as="geometry" />
        </mxCell>
        <mxCell id="ybqGgP9Tk_2zhiFZXPDy-6" value="" style="rounded=1;whiteSpace=wrap;html=1;strokeWidth=2;fillWeight=4;hachureGap=8;hachureAngle=45;fillColor=#fff2cc;sketch=1;strokeColor=#d6b656;rotation=0;" parent="ybqGgP9Tk_2zhiFZXPDy-5" vertex="1">
          <mxGeometry width="90" height="36.66666666666668" as="geometry" />
        </mxCell>
        <mxCell id="ybqGgP9Tk_2zhiFZXPDy-7" value="&lt;font style=&quot;font-size: 14px;&quot;&gt;Persistence model&lt;/font&gt;" style="text;html=1;align=center;verticalAlign=middle;whiteSpace=wrap;rounded=0;fontFamily=Courier New;fontSize=16;rotation=0;" parent="ybqGgP9Tk_2zhiFZXPDy-5" vertex="1">
          <mxGeometry width="90" height="40" as="geometry" />
        </mxCell>
        <mxCell id="ybqGgP9Tk_2zhiFZXPDy-14" value="" style="group;rotation=0;" parent="1" vertex="1" connectable="0">
          <mxGeometry x="1120" y="343.46" width="90" height="40" as="geometry" />
        </mxCell>
        <mxCell id="ybqGgP9Tk_2zhiFZXPDy-15" value="" style="rounded=1;whiteSpace=wrap;html=1;strokeWidth=2;fillWeight=4;hachureGap=8;hachureAngle=45;fillColor=#fff2cc;sketch=1;strokeColor=#d6b656;rotation=0;" parent="ybqGgP9Tk_2zhiFZXPDy-14" vertex="1">
          <mxGeometry width="90" height="36.66666666666667" as="geometry" />
        </mxCell>
        <mxCell id="ybqGgP9Tk_2zhiFZXPDy-16" value="&lt;font style=&quot;font-size: 14px;&quot;&gt;Service model&lt;/font&gt;" style="text;html=1;align=center;verticalAlign=middle;whiteSpace=wrap;rounded=0;fontFamily=Courier New;fontSize=16;rotation=0;" parent="ybqGgP9Tk_2zhiFZXPDy-14" vertex="1">
          <mxGeometry width="90" height="40" as="geometry" />
        </mxCell>
        <mxCell id="ybqGgP9Tk_2zhiFZXPDy-25" value="" style="endArrow=classic;html=1;rounded=0;strokeWidth=2;fillColor=#f8cecc;strokeColor=#b85450;entryX=0;entryY=0.75;entryDx=0;entryDy=0;exitX=1;exitY=0.5;exitDx=0;exitDy=0;" parent="1" source="z9FG9AvtT7yrs5gUOfZ3-15" target="2FOs6otmB9vWOXLk1C3Q-9" edge="1">
          <mxGeometry width="50" height="50" relative="1" as="geometry">
            <mxPoint x="810" y="270" as="sourcePoint" />
            <mxPoint x="890" y="270" as="targetPoint" />
          </mxGeometry>
        </mxCell>
        <mxCell id="ybqGgP9Tk_2zhiFZXPDy-26" value="" style="endArrow=classic;html=1;rounded=0;strokeWidth=2;fillColor=#f8cecc;strokeColor=#b85450;entryX=0;entryY=0.25;entryDx=0;entryDy=0;exitX=1;exitY=0.75;exitDx=0;exitDy=0;" parent="1" source="f7sNq5c6VwE4PImA_pKB-26" target="z9FG9AvtT7yrs5gUOfZ3-15" edge="1">
          <mxGeometry width="50" height="50" relative="1" as="geometry">
            <mxPoint x="480" y="270" as="sourcePoint" />
            <mxPoint x="640" y="270" as="targetPoint" />
          </mxGeometry>
        </mxCell>
        <mxCell id="ybqGgP9Tk_2zhiFZXPDy-11" value="" style="group" parent="1" vertex="1" connectable="0">
          <mxGeometry x="540" y="240" width="110" height="47.91" as="geometry" />
        </mxCell>
        <mxCell id="ybqGgP9Tk_2zhiFZXPDy-12" value="" style="rounded=1;whiteSpace=wrap;html=1;strokeWidth=2;fillWeight=4;hachureGap=8;hachureAngle=45;fillColor=#f8cecc;sketch=1;strokeColor=#b85450;" parent="ybqGgP9Tk_2zhiFZXPDy-11" vertex="1">
          <mxGeometry width="110.00000000000001" height="43.917500000000004" as="geometry" />
        </mxCell>
        <mxCell id="ybqGgP9Tk_2zhiFZXPDy-13" value="&lt;font style=&quot;font-size: 16px;&quot;&gt;Application models&lt;/font&gt;" style="text;html=1;align=center;verticalAlign=middle;whiteSpace=wrap;rounded=0;fontFamily=Courier New;fontSize=16;" parent="ybqGgP9Tk_2zhiFZXPDy-11" vertex="1">
          <mxGeometry width="110.00000000000001" height="47.910000000000004" as="geometry" />
        </mxCell>
        <mxCell id="ybqGgP9Tk_2zhiFZXPDy-28" value="" style="endArrow=classic;html=1;rounded=0;strokeWidth=2;fillColor=#f8cecc;strokeColor=#b85450;entryX=-0.004;entryY=0.327;entryDx=0;entryDy=0;exitX=1;exitY=0.75;exitDx=0;exitDy=0;entryPerimeter=0;" parent="1" target="2FOs6otmB9vWOXLk1C3Q-9" edge="1">
          <mxGeometry width="50" height="50" relative="1" as="geometry">
            <mxPoint x="480" y="200" as="sourcePoint" />
            <mxPoint x="690" y="202" as="targetPoint" />
          </mxGeometry>
        </mxCell>
        <mxCell id="ybqGgP9Tk_2zhiFZXPDy-17" value="" style="group;rotation=0;" parent="1" vertex="1" connectable="0">
          <mxGeometry x="850" y="160" width="90" height="150" as="geometry" />
        </mxCell>
        <mxCell id="ybqGgP9Tk_2zhiFZXPDy-18" value="" style="rounded=1;whiteSpace=wrap;html=1;strokeWidth=2;fillWeight=4;hachureGap=8;hachureAngle=45;fillColor=#fff2cc;sketch=1;strokeColor=#d6b656;rotation=0;" parent="ybqGgP9Tk_2zhiFZXPDy-17" vertex="1">
          <mxGeometry width="90" height="137.50000000000003" as="geometry" />
        </mxCell>
        <mxCell id="ybqGgP9Tk_2zhiFZXPDy-19" value="&lt;font style=&quot;font-size: 16px;&quot;&gt;Entity models&lt;/font&gt;" style="text;html=1;align=center;verticalAlign=middle;whiteSpace=wrap;rounded=0;fontFamily=Courier New;fontSize=16;rotation=0;" parent="ybqGgP9Tk_2zhiFZXPDy-17" vertex="1">
          <mxGeometry width="90" height="150" as="geometry" />
        </mxCell>
      </root>
    </mxGraphModel>
  </diagram>
</mxfile>
